<?xml version="1.0" encoding="UTF-8"?>
<svg id="Layer_1" data-name="Layer 1" xmlns="http://www.w3.org/2000/svg" viewBox="0 0 223.66 63.57">
  <path d="M29.89,24.68c4.6,0,8.34,3.73,8.34,8.34s-3.74,8.34-8.34,8.34-8.34-3.73-8.34-8.34,3.73-8.34,8.34-8.34Zm0-5.73c7.77,0,14.07,6.3,14.07,14.07s-6.3,14.07-14.07,14.07-14.07-6.3-14.07-14.07,6.3-14.07,14.07-14.07Z" fill="#a39a8e" fill-rule="evenodd"/>
  <polygon points="26.42 38.7 33.68 38.7 37.55 53.16 22.23 53.16 26.42 38.7" fill="#0066b0" fill-rule="evenodd"/>
  <polygon points="26.42 38.7 33.68 38.7 37.55 53.16 22.23 53.16 26.42 38.7" fill="none" stroke="#fff" stroke-width="3.63"/>
  <path d="M29.89,13.34c9.29,0,17.07,6.44,19.14,15.1h-1.79c-2.02-7.69-9.02-13.36-17.35-13.36s-15.33,5.67-17.35,13.36h-1.79c2.07-8.66,9.85-15.1,19.14-15.1Z" fill="#0066b0" fill-rule="evenodd"/>
  <path d="M95.06,18.44c0-.23,.08-.42,.24-.58,.16-.15,.36-.23,.6-.23s.43,.08,.59,.23c.16,.16,.25,.35,.25,.58s-.08,.41-.25,.57c-.16,.16-.36,.24-.59,.24s-.43-.08-.59-.24c-.16-.15-.25-.35-.25-.57Zm.15,1.46h1.37v5.18h-1.37v-5.18Zm-6.47-1.99h1.38v2.57c.42-.47,.99-.7,1.72-.7,.61,0,1.11,.18,1.47,.55,.37,.37,.55,.94,.55,1.69v3.06h-1.36v-2.88c0-.41-.1-.72-.3-.91-.2-.19-.44-.29-.74-.29-.39,0-.71,.14-.97,.44-.26,.29-.39,.62-.39,1v2.64h-1.38v-7.17Zm-5.84,5.51h1.35c0,.23,.1,.4,.31,.52,.21,.12,.5,.18,.86,.18,.6,0,.9-.16,.9-.47,0-.07-.01-.12-.04-.18-.03-.05-.07-.1-.13-.13-.06-.04-.12-.06-.18-.09-.06-.02-.14-.05-.25-.07-.1-.02-.2-.04-.28-.05-.08-.01-.19-.03-.32-.05-.13-.02-.24-.04-.33-.06-.2-.04-.39-.09-.56-.14-.16-.06-.32-.12-.49-.22-.16-.09-.3-.2-.41-.31-.11-.12-.2-.26-.27-.42-.07-.17-.1-.36-.1-.57,0-.51,.19-.91,.58-1.18,.38-.27,.91-.41,1.58-.41,.46,0,.87,.06,1.22,.19,.36,.13,.64,.33,.86,.6,.21,.27,.32,.6,.32,.98h-1.35c0-.22-.09-.4-.27-.52-.18-.12-.43-.18-.75-.18-.26,0-.46,.04-.6,.12-.15,.08-.21,.2-.21,.36,0,.06,.01,.12,.03,.17,.02,.05,.06,.1,.12,.13,.06,.04,.11,.07,.17,.1,.06,.03,.14,.05,.25,.08,.11,.02,.2,.05,.29,.06,.08,.02,.2,.04,.34,.07,.15,.03,.28,.05,.38,.08,.2,.04,.36,.09,.5,.12,.14,.04,.3,.1,.47,.18,.17,.09,.31,.18,.42,.28,.11,.1,.2,.24,.27,.41,.07,.17,.11,.36,.11,.57,0,.53-.2,.93-.61,1.21-.4,.27-.95,.41-1.66,.41-.49,0-.91-.06-1.28-.19-.37-.12-.66-.32-.89-.6-.22-.27-.33-.61-.33-1Zm-2.81-2c-.27-.28-.62-.42-1.04-.42s-.78,.14-1.05,.42c-.26,.28-.4,.64-.4,1.06s.13,.79,.4,1.08c.27,.29,.61,.42,1.05,.42s.78-.14,1.04-.42c.27-.29,.4-.64,.4-1.08s-.13-.78-.4-1.06Zm-1.25,3.79c-.5,0-.95-.12-1.36-.36-.4-.24-.71-.57-.93-.99-.22-.41-.33-.87-.33-1.37s.11-.96,.33-1.37c.22-.41,.54-.74,.94-.99,.41-.24,.86-.36,1.36-.36,.66,0,1.2,.21,1.61,.64v-.5h1.36v5.18h-1.36v-.51c-.41,.43-.95,.64-1.62,.64Zm-8.77-5.31h1.38v.58c.41-.47,.99-.7,1.72-.7,.62,0,1.11,.18,1.48,.55,.37,.37,.55,.94,.55,1.69v3.06h-1.36v-2.88c0-.41-.1-.72-.29-.91-.2-.19-.44-.29-.74-.29-.39,0-.71,.14-.97,.44-.26,.29-.38,.62-.38,1v2.64h-1.38v-5.18Zm-2.95-1.46c0-.23,.08-.42,.25-.58,.16-.15,.36-.23,.59-.23s.43,.08,.59,.23c.16,.16,.24,.35,.24,.58s-.08,.41-.24,.57c-.16,.16-.36,.24-.59,.24s-.43-.08-.59-.24c-.16-.15-.25-.35-.25-.57Zm.15,1.46h1.38v5.18h-1.38v-5.18Zm-6.58,0h1.5l1.38,3.73,1.39-3.73h1.5l-2.15,5.18h-1.48l-2.14-5.18Zm-4.83,2.66h2.63l-1.31-3.21-1.32,3.21Zm-2.57,2.52l3.12-7.17h1.56l3.09,7.17h-1.52l-.53-1.3h-3.64l-.54,1.3h-1.53Z" fill="#a39a8e" fill-rule="evenodd"/>
  <path d="M206.3,40.46h3.11c0,.52,.24,.93,.71,1.21,.48,.28,1.14,.43,1.99,.43,1.39,0,2.08-.36,2.08-1.09,0-.15-.03-.29-.09-.41-.06-.12-.16-.22-.3-.3-.13-.08-.27-.15-.42-.21-.14-.06-.33-.11-.57-.15-.23-.05-.45-.09-.65-.12-.19-.03-.44-.08-.74-.12-.3-.05-.55-.09-.77-.13-.47-.1-.9-.21-1.27-.34-.38-.12-.76-.29-1.13-.5-.38-.21-.7-.45-.95-.72-.26-.27-.46-.6-.62-.98-.16-.39-.24-.82-.24-1.3,0-1.19,.44-2.09,1.33-2.72,.89-.63,2.1-.95,3.63-.95,1.06,0,2,.14,2.82,.44,.82,.3,1.47,.76,1.96,1.39,.49,.62,.74,1.38,.74,2.25h-3.11c0-.52-.21-.91-.63-1.19-.42-.27-1-.42-1.73-.42-.61,0-1.07,.1-1.4,.29-.33,.19-.49,.46-.49,.83,0,.14,.03,.27,.08,.39,.06,.12,.15,.22,.28,.31,.13,.09,.26,.16,.39,.22,.13,.06,.32,.12,.57,.18,.24,.06,.46,.11,.66,.14,.19,.04,.46,.09,.8,.16,.34,.06,.64,.12,.88,.17,.45,.1,.84,.2,1.16,.29,.33,.09,.69,.24,1.08,.43,.4,.19,.72,.41,.96,.64,.25,.24,.45,.56,.62,.95,.17,.39,.26,.84,.26,1.33,0,1.22-.46,2.15-1.4,2.78-.93,.63-2.2,.95-3.82,.95-1.11,0-2.09-.14-2.94-.43-.85-.29-1.53-.75-2.05-1.38-.52-.63-.77-1.4-.77-2.31Zm-14.12-8.12h3.17v1.34c.96-1.09,2.28-1.62,3.97-1.62,1.42,0,2.55,.42,3.4,1.28,.85,.86,1.27,2.16,1.27,3.9v7.05h-3.14v-6.63c0-.95-.22-1.65-.68-2.1-.46-.45-1.02-.67-1.71-.67-.89,0-1.63,.34-2.22,1-.6,.67-.89,1.44-.89,2.3v6.09h-3.17v-11.94Zm-7.2,3.5c-.62-.65-1.42-.98-2.41-.98s-1.78,.33-2.4,.98c-.62,.65-.93,1.47-.93,2.45s.31,1.82,.92,2.48c.62,.66,1.42,.98,2.41,.98s1.8-.32,2.41-.98c.61-.66,.92-1.48,.92-2.48s-.31-1.8-.93-2.45Zm-2.88,8.73c-1.15,0-2.19-.28-3.12-.84-.92-.56-1.64-1.31-2.16-2.26-.51-.95-.77-2.01-.77-3.16s.25-2.22,.77-3.17c.51-.95,1.23-1.72,2.17-2.27,.92-.56,1.97-.84,3.13-.84,1.52,0,2.76,.49,3.72,1.46v-1.15h3.14v11.94h-3.14v-1.18c-.95,.98-2.2,1.46-3.74,1.46Zm-20.16-6.26c0-.86,.16-1.68,.5-2.45,.33-.77,.78-1.44,1.35-2,.57-.56,1.26-1,2.06-1.32,.81-.33,1.67-.49,2.59-.49,1.42,0,2.67,.37,3.74,1.13,1.08,.75,1.84,1.74,2.28,2.98l-2.98,.94c-.23-.68-.63-1.22-1.19-1.63-.55-.41-1.19-.61-1.92-.61-.93,0-1.7,.33-2.32,.98-.61,.65-.92,1.48-.92,2.47s.31,1.79,.92,2.44c.62,.66,1.39,.98,2.32,.98,.73,0,1.36-.2,1.91-.61,.55-.41,.96-.94,1.2-1.6l2.98,.95c-.45,1.23-1.21,2.22-2.28,2.97-1.06,.75-2.31,1.13-3.74,1.13-1.22,0-2.33-.28-3.33-.83-.99-.55-1.77-1.3-2.33-2.26-.56-.95-.84-2.01-.84-3.17Zm-16.05,.75h3.33c0,.92,.34,1.61,1.04,2.07,.71,.46,1.68,.69,2.93,.69,1.12,0,1.98-.17,2.57-.52,.59-.35,.88-.82,.88-1.41,0-.28-.07-.52-.2-.74-.14-.21-.31-.39-.53-.54-.22-.15-.5-.28-.83-.41-.34-.12-.68-.23-1.04-.32-.36-.09-.76-.19-1.21-.29-.07-.02-.14-.03-.17-.04-.04,0-.1-.02-.16-.04-.07-.01-.13-.03-.18-.05-.61-.15-1.16-.29-1.65-.44-.48-.15-.97-.33-1.47-.54-.5-.21-.92-.45-1.28-.71-.36-.27-.68-.56-.96-.89-.28-.34-.5-.72-.64-1.15-.15-.44-.22-.91-.22-1.43,0-1.5,.59-2.68,1.75-3.55,1.16-.86,2.73-1.3,4.73-1.3,.98,0,1.89,.11,2.71,.34,.83,.22,1.56,.55,2.19,.99,.64,.44,1.13,1.01,1.49,1.72,.36,.71,.53,1.52,.53,2.43h-3.33c0-.91-.31-1.6-.96-2.06-.64-.45-1.53-.68-2.65-.68-1.02,0-1.8,.18-2.34,.54-.54,.36-.81,.83-.81,1.43,0,.27,.06,.51,.18,.72,.12,.21,.27,.39,.45,.52,.18,.14,.42,.27,.74,.39,.32,.12,.61,.22,.88,.3,.27,.08,.62,.17,1.05,.27,.23,.06,.39,.1,.51,.13,.48,.12,.88,.22,1.19,.31,.32,.09,.69,.19,1.11,.32,.42,.13,.78,.25,1.06,.37,.29,.12,.6,.26,.93,.43,.34,.16,.61,.34,.84,.51,.22,.17,.44,.38,.66,.61,.23,.23,.4,.48,.53,.74,.12,.26,.23,.55,.31,.86,.08,.32,.12,.66,.12,1.03,0,1.53-.61,2.72-1.82,3.58-1.22,.86-2.86,1.29-4.94,1.31-1.04,0-2-.1-2.86-.32-.88-.22-1.65-.55-2.32-.99-.67-.44-1.19-1.02-1.58-1.74-.38-.72-.57-1.54-.57-2.47Zm-20.79-6.72h3.45l3.12,8.36,3.27-8.36h3.46l-7,16.18h-3.47l2-4.46-4.84-11.71Zm-10.65,2.76v-2.76h2.23v-3.1l3.17-1.04v4.14h4.12v2.76h-4.12v4.59c0,1.35,.53,2.03,1.6,2.03,.57,0,1.25-.22,2.05-.67l1.09,2.48c-1.16,.7-2.36,1.05-3.61,1.05-2.87,0-4.3-1.7-4.3-5.11v-4.37h-2.23Zm-5.71-6.14c0-.53,.18-.97,.56-1.33,.38-.36,.83-.53,1.38-.53s.98,.18,1.35,.53c.38,.36,.56,.81,.56,1.33s-.18,.96-.56,1.32c-.37,.37-.82,.55-1.35,.55s-1-.18-1.38-.54c-.38-.36-.56-.8-.56-1.32Zm.34,3.38h3.17v11.94h-3.17v-11.94Zm-6.53-4.59h3.17v16.53h-3.17V27.75Zm-7.27,8.09c-.62-.65-1.42-.98-2.4-.98s-1.79,.33-2.41,.98c-.62,.65-.93,1.47-.93,2.45s.31,1.82,.92,2.48c.62,.66,1.42,.98,2.41,.98s1.79-.32,2.41-.98c.61-.66,.92-1.48,.92-2.48s-.31-1.8-.92-2.45Zm-2.88,8.73c-1.16,0-2.2-.28-3.12-.84-.93-.56-1.65-1.31-2.16-2.26-.51-.95-.77-2.01-.77-3.16s.25-2.22,.77-3.17c.51-.95,1.23-1.72,2.17-2.27,.93-.56,1.97-.84,3.13-.84,1.52,0,2.76,.49,3.71,1.46v-1.15h3.14v11.94h-3.14v-1.18c-.95,.98-2.2,1.46-3.73,1.46Zm-20.38-12.23h3.14v6.63c0,.96,.23,1.65,.68,2.1,.45,.45,1.02,.67,1.71,.67,.89,0,1.63-.33,2.22-1,.59-.67,.89-1.44,.89-2.3v-6.09h3.17v11.94h-3.17v-1.35c-.97,1.09-2.29,1.64-3.96,1.64-1.43,0-2.56-.43-3.41-1.29-.84-.85-1.27-2.16-1.27-3.89v-7.06Zm-7.35-.21c-1.05-1.06-2.35-1.59-3.9-1.59s-2.86,.53-3.91,1.59c-1.05,1.06-1.57,2.35-1.57,3.89s.53,2.84,1.57,3.89c1.05,1.06,2.35,1.59,3.91,1.59s2.85-.53,3.9-1.58c1.05-1.06,1.57-2.36,1.57-3.9s-.53-2.83-1.57-3.89Zm-12.73,3.89c0-1.59,.38-3.04,1.15-4.34,.77-1.3,1.83-2.32,3.18-3.07,1.35-.74,2.85-1.11,4.5-1.11s3.14,.38,4.49,1.11c1.35,.74,2.41,1.76,3.18,3.07,.77,1.3,1.16,2.75,1.16,4.34,0,1.76-.47,3.34-1.41,4.73-.94,1.4-2.2,2.43-3.76,3.09,.68,.54,1.36,.97,2.04,1.29,.67,.32,1.41,.48,2.19,.48,.86,0,1.69-.28,2.48-.83l1.53,2.46c-1.02,.89-2.31,1.35-3.85,1.35-.48,0-.95-.05-1.44-.14-.48-.09-.93-.2-1.32-.32-.39-.12-.81-.3-1.27-.52-.45-.23-.82-.43-1.11-.6-.29-.16-.63-.4-1.04-.69-.41-.29-.7-.51-.87-.64-.17-.13-.43-.34-.78-.63-.35-.29-.55-.46-.59-.5-1.19-.04-2.31-.3-3.36-.75-1.05-.45-1.95-1.05-2.69-1.8-.75-.75-1.34-1.64-1.77-2.68-.43-1.04-.64-2.14-.64-3.3Z" fill="#0066b0" fill-rule="evenodd"/>
  <path d="M213.34,48.48c-.1,0-.19,.04-.26,.11-.07,.07-.11,.16-.11,.28,0,.1,.04,.18,.11,.25,.07,.07,.16,.11,.26,.11h.43c.16,0,.31,.03,.46,.1,.15,.06,.28,.15,.39,.27,.11,.11,.2,.24,.27,.39,.07,.15,.1,.31,.1,.48s-.03,.32-.1,.47c-.06,.15-.15,.28-.26,.39-.11,.11-.24,.2-.39,.27-.15,.07-.31,.1-.48,.11h-1.14c-.13,0-.23-.04-.31-.12-.08-.08-.12-.19-.12-.31s.04-.21,.12-.3c.08-.09,.18-.13,.31-.13h1.14c.1,0,.19-.03,.26-.11,.08-.07,.12-.16,.12-.26s-.04-.19-.11-.26c-.07-.07-.16-.11-.26-.11h-.44c-.16,0-.32-.04-.46-.1-.15-.07-.28-.15-.39-.26-.11-.11-.2-.24-.27-.39-.07-.15-.1-.31-.1-.49,0-.16,.04-.31,.1-.46,.06-.15,.15-.28,.27-.4,.11-.11,.24-.21,.39-.28,.15-.07,.31-.11,.48-.11h1.14c.11,0,.21,.04,.29,.12,.08,.08,.12,.19,.13,.31,0,.12-.04,.22-.12,.3-.08,.08-.18,.12-.3,.12h-1.14Zm-2.55-.86c.11,0,.21,.04,.3,.13,.08,.09,.12,.18,.12,.3v3.21c0,.12-.04,.22-.12,.3-.08,.08-.18,.12-.3,.12-.12,0-.23-.04-.31-.12-.09-.08-.12-.18-.12-.3v-3.21c0-.12,.04-.22,.12-.3,.08-.09,.18-.13,.31-.13Zm-2.98,.86c-.1,0-.19,.04-.26,.11-.07,.07-.11,.16-.11,.28,0,.1,.04,.18,.11,.25,.07,.07,.16,.11,.26,.11h.43c.16,0,.31,.03,.46,.1,.15,.06,.28,.15,.39,.27,.11,.11,.21,.24,.27,.39,.07,.15,.1,.31,.1,.48s-.03,.32-.09,.47c-.07,.15-.15,.28-.26,.39-.11,.11-.24,.2-.39,.27-.15,.07-.31,.1-.48,.11h-1.14c-.12,0-.23-.04-.31-.12-.08-.08-.12-.19-.12-.31s.04-.21,.12-.3c.08-.09,.19-.13,.31-.13h1.14c.1,0,.19-.03,.26-.11,.08-.07,.12-.16,.12-.26s-.04-.19-.11-.26c-.07-.07-.16-.11-.26-.11h-.44c-.16,0-.32-.04-.47-.1-.15-.07-.28-.15-.39-.26-.11-.11-.2-.24-.27-.39-.07-.15-.1-.31-.1-.49,0-.16,.03-.31,.09-.46,.07-.15,.15-.28,.27-.4,.11-.11,.24-.21,.39-.28,.15-.07,.31-.11,.48-.11h1.14c.12,0,.22,.04,.29,.12,.08,.08,.13,.19,.14,.31,0,.12-.04,.22-.12,.3-.08,.08-.18,.12-.31,.12h-1.14Zm-2.91,.68c0-.1-.02-.19-.06-.28-.03-.09-.09-.16-.15-.23-.07-.06-.14-.12-.23-.15-.09-.04-.18-.06-.29-.06s-.2,.02-.28,.06c-.09,.03-.16,.08-.23,.14-.06,.06-.11,.13-.15,.21-.04,.08-.06,.17-.06,.27v1.02c0,.1,.01,.19,.05,.28,.04,.09,.09,.16,.15,.23,.07,.07,.14,.12,.23,.16,.09,.04,.18,.05,.3,.05,.09,0,.18-.01,.27-.05,.09-.04,.16-.09,.23-.15,.06-.06,.11-.13,.15-.22,.04-.09,.06-.17,.06-.27v-1.02Zm-.71,2.54c-.21,0-.41-.04-.6-.11-.19-.07-.35-.18-.49-.31-.14-.13-.25-.29-.34-.48-.09-.18-.13-.38-.13-.59v-1.04c0-.21,.04-.41,.12-.6,.08-.19,.19-.35,.33-.49,.14-.14,.3-.25,.49-.33,.19-.08,.39-.12,.62-.12,.2,0,.4,.04,.59,.11,.19,.07,.35,.18,.49,.31,.14,.13,.25,.29,.34,.48,.09,.18,.13,.38,.13,.59v1.04c0,.21-.04,.41-.12,.6-.08,.19-.19,.35-.33,.49-.14,.14-.3,.25-.49,.33-.19,.08-.39,.12-.61,.12Zm-3.97-4.06c.2,0,.4,.04,.59,.11,.19,.07,.35,.18,.49,.31,.14,.13,.25,.29,.34,.48,.09,.18,.13,.38,.13,.59v2.15c0,.11-.04,.21-.12,.29-.08,.08-.17,.12-.29,.13-.11,0-.21-.04-.3-.11-.08-.07-.12-.17-.12-.28v-2.12c0-.1-.02-.19-.06-.28-.03-.09-.09-.16-.15-.23-.07-.07-.14-.12-.23-.15-.09-.04-.18-.06-.29-.06-.09,0-.18,.02-.27,.06-.09,.03-.16,.08-.22,.14-.07,.06-.12,.13-.16,.21-.04,.09-.06,.18-.06,.27v2.13c0,.11-.04,.21-.13,.29-.09,.08-.18,.12-.29,.12s-.21-.04-.29-.11c-.09-.08-.13-.17-.13-.28v-2.12c0-.21,.05-.41,.12-.6,.08-.19,.19-.35,.33-.49,.14-.14,.3-.25,.49-.33,.19-.08,.39-.12,.61-.12Zm-3.97,4.06c-.21,0-.41-.04-.59-.11-.19-.08-.35-.18-.49-.32-.14-.14-.25-.29-.34-.48-.09-.18-.13-.38-.13-.59v-1.04c0-.21,.04-.41,.12-.6,.08-.19,.19-.35,.33-.49,.14-.14,.3-.25,.49-.33,.19-.08,.4-.12,.62-.12,.12,0,.23,0,.33,.03,.18,.03,.34,.09,.49,.17,.23,.13,.41,.31,.54,.54,.01,.03,.03,.07,.05,.11,.02,.04,.02,.08,.02,.12,0,.12-.04,.22-.12,.31-.09,.08-.19,.12-.31,.12-.09,0-.17-.02-.23-.07-.06-.05-.11-.11-.16-.18-.05-.09-.12-.15-.21-.2-.07-.04-.17-.08-.28-.11-.03,0-.07,0-.12,0-.1,0-.19,.02-.28,.05-.08,.04-.16,.09-.22,.14-.06,.06-.11,.13-.15,.22-.04,.08-.06,.17-.06,.27v1.02c0,.12,.01,.21,.05,.29,.04,.08,.09,.15,.16,.21,.07,.06,.14,.11,.23,.15,.09,.04,.18,.06,.3,.07,.11,0,.2-.02,.28-.05,.07-.03,.14-.08,.2-.14,.06-.06,.11-.14,.15-.22,.04-.08,.06-.17,.06-.26h-.14c-.12,0-.22-.04-.3-.12-.09-.08-.12-.18-.12-.3,0-.12,.04-.23,.12-.31,.08-.09,.18-.12,.3-.12h.56c.12,0,.23,.04,.31,.12,.08,.08,.12,.18,.13,.31v.39c-.01,.21-.06,.41-.14,.6-.08,.19-.19,.35-.32,.49-.14,.14-.3,.25-.49,.33-.19,.08-.4,.12-.61,.12Zm-3.25-2.54c0-.1-.02-.19-.05-.28-.04-.09-.09-.16-.15-.23-.07-.06-.14-.12-.23-.15-.09-.04-.18-.06-.28-.06-.09,0-.18,.02-.27,.06-.09,.03-.16,.08-.23,.14-.06,.06-.11,.13-.15,.21-.04,.08-.05,.17-.05,.27v.57h1.42v-.54Zm-.71-1.55c.2,0,.4,.04,.59,.11,.19,.07,.35,.18,.49,.31,.14,.13,.25,.29,.34,.48,.09,.18,.13,.38,.13,.59v2.15c0,.11-.04,.21-.12,.29-.08,.08-.18,.12-.29,.13-.11,0-.21-.04-.3-.11-.08-.08-.12-.17-.12-.28v-.75h-1.42v.73c0,.11-.04,.21-.13,.29-.09,.08-.18,.12-.29,.12s-.21-.04-.3-.11c-.08-.08-.12-.17-.12-.28v-2.12c0-.21,.04-.41,.12-.6,.08-.19,.19-.35,.32-.49,.14-.14,.3-.25,.49-.33,.19-.08,.39-.12,.61-.12Zm-2.9,0c.11,0,.21,.04,.3,.13,.08,.09,.12,.18,.12,.3v3.22c0,.12-.04,.22-.12,.3-.09,.08-.18,.12-.3,.12-.12,0-.23-.04-.31-.12-.08-.08-.12-.18-.12-.3v-3.22c0-.12,.04-.22,.12-.3,.08-.09,.19-.13,.31-.13Zm-3.53,.86v2.34h.74c.08,0,.16-.01,.23-.05,.08-.03,.14-.07,.19-.12,.05-.05,.09-.11,.12-.18,.03-.07,.04-.15,.04-.23v-1.18c0-.08-.02-.16-.04-.23-.03-.07-.07-.13-.12-.19-.06-.05-.12-.09-.19-.12-.07-.03-.15-.04-.23-.04h-.74Zm.74-.87c.19,0,.37,.04,.54,.11,.18,.07,.33,.18,.47,.31,.13,.13,.24,.29,.32,.46,.08,.18,.12,.36,.12,.57v1.18c0,.19-.04,.38-.12,.55-.08,.17-.18,.33-.32,.46-.13,.13-.28,.24-.46,.32-.18,.08-.36,.12-.56,.12h-1.17c-.11,0-.22-.04-.3-.12-.09-.08-.13-.18-.13-.31v-3.21c0-.11,.04-.21,.12-.3,.08-.09,.19-.13,.31-.13h1.17Zm-4.4,3.21c.12,0,.22,.04,.3,.13,.08,.09,.12,.19,.12,.3,0,.12-.04,.23-.12,.31-.09,.08-.18,.12-.3,.12h-1.83c-.11,0-.21-.04-.3-.12-.09-.08-.13-.18-.13-.31v-3.21c0-.11,.04-.21,.12-.3,.08-.09,.18-.13,.31-.13h1.83c.12,0,.22,.04,.3,.12,.08,.09,.12,.19,.12,.31s-.04,.22-.12,.3c-.09,.08-.18,.12-.3,.12h-1.41v.73h.98c.11,0,.21,.04,.3,.12,.09,.09,.13,.19,.13,.31s-.04,.22-.13,.3c-.08,.09-.18,.12-.3,.12h-.98v.76h1.41Zm-3.51-3.21c.12,0,.23,.04,.31,.12,.08,.09,.12,.19,.12,.31s-.04,.22-.12,.3c-.09,.08-.19,.12-.31,.12h-.71v2.78c0,.12-.04,.23-.12,.31-.08,.08-.18,.12-.3,.12s-.23-.04-.31-.12c-.08-.08-.12-.18-.12-.31v-2.78h-.72c-.12,0-.22-.04-.31-.12s-.12-.18-.12-.3,.04-.22,.12-.31c.08-.09,.18-.12,.31-.12h2.29Zm-4.14,1.54c0-.1-.01-.19-.06-.28-.03-.09-.08-.16-.15-.23-.07-.06-.14-.11-.23-.15-.09-.04-.18-.06-.28-.06s-.18,.02-.27,.06c-.09,.03-.16,.08-.22,.14-.07,.06-.12,.13-.16,.21-.04,.08-.06,.17-.06,.27v.57h1.42v-.54Zm-.71-1.54c.2,0,.4,.04,.59,.11,.19,.07,.35,.18,.49,.31,.14,.14,.25,.29,.34,.48,.09,.18,.13,.38,.13,.59v2.15c0,.11-.04,.21-.12,.29-.08,.08-.17,.12-.29,.12-.11,0-.21-.04-.3-.11-.08-.08-.12-.17-.12-.29v-.75h-1.42v.73c0,.11-.04,.21-.13,.29-.09,.09-.18,.12-.29,.12s-.21-.04-.29-.11c-.08-.08-.13-.17-.13-.28v-2.12c0-.21,.05-.41,.12-.6,.08-.19,.19-.35,.32-.49,.14-.14,.3-.25,.49-.33,.19-.08,.39-.12,.61-.12Zm-3.27,1.54c0-.09-.02-.18-.05-.27-.04-.09-.09-.16-.15-.22-.07-.07-.14-.12-.23-.15-.08-.03-.17-.05-.27-.05h-.69v1.4h.69c.09,0,.18-.02,.27-.05,.09-.04,.16-.09,.23-.15,.06-.06,.11-.14,.15-.22,.04-.08,.05-.17,.05-.27Zm-.87,1.55h-.52v.56c0,.12-.04,.22-.12,.3-.08,.08-.18,.12-.3,.12s-.22-.04-.3-.12c-.08-.08-.12-.18-.12-.3v-3.24c0-.12,.04-.22,.12-.3,.08-.08,.18-.12,.3-.12h1.12c.21,0,.42,.04,.6,.12,.19,.08,.36,.19,.5,.33,.14,.14,.25,.31,.33,.5,.08,.19,.12,.39,.12,.6,0,.28-.07,.54-.2,.77-.14,.23-.31,.42-.53,.55l.48,.47c.08,.09,.12,.19,.12,.3s-.04,.22-.12,.31c-.08,.09-.18,.12-.3,.12s-.22-.04-.3-.12l-.87-.86Zm-3.83,.97c-.22,0-.43-.04-.61-.12-.19-.08-.35-.19-.49-.33-.14-.14-.25-.31-.33-.49-.08-.19-.12-.39-.12-.6v-2.12c0-.11,.04-.2,.13-.28,.09-.08,.18-.11,.29-.11s.21,.04,.29,.12c.09,.09,.13,.18,.13,.29v2.13c0,.09,.02,.18,.06,.27,.04,.09,.09,.16,.15,.22,.07,.06,.14,.11,.22,.14,.09,.04,.18,.06,.27,.06,.1,0,.2-.02,.29-.06,.09-.04,.16-.09,.23-.15,.06-.07,.12-.14,.15-.23,.04-.09,.05-.18,.05-.28v-2.12c0-.12,.04-.21,.12-.28,.08-.07,.18-.11,.3-.11,.11,0,.21,.04,.29,.12,.08,.08,.12,.18,.12,.29v2.15c0,.21-.04,.41-.12,.59-.09,.18-.2,.34-.34,.47-.14,.14-.3,.24-.49,.32-.19,.07-.38,.11-.59,.11Zm-2.83-1.37c.12,0,.21,.04,.3,.12,.09,.08,.13,.18,.13,.31,0,.04,0,.08-.02,.12-.02,.04-.03,.08-.05,.12-.12,.22-.3,.39-.52,.52-.23,.13-.48,.19-.77,.19h-.06c-.21,0-.41-.04-.6-.11-.19-.07-.35-.18-.49-.31-.14-.13-.25-.29-.34-.47-.09-.18-.13-.38-.13-.59v-1.04c0-.21,.04-.41,.12-.6,.08-.19,.19-.35,.32-.49,.14-.14,.3-.25,.49-.33,.19-.08,.4-.12,.62-.12,.12,0,.24,0,.33,.03,.18,.03,.34,.09,.49,.17,.23,.13,.41,.31,.54,.54,.02,.03,.03,.07,.05,.11,.02,.04,.02,.08,.02,.12,0,.12-.04,.22-.13,.31-.09,.09-.19,.13-.3,.13-.09,0-.17-.02-.23-.08-.06-.05-.11-.11-.16-.18-.05-.09-.12-.16-.21-.21-.07-.04-.17-.08-.28-.11-.04,0-.07,0-.11,0-.11,0-.2,.02-.28,.06-.09,.03-.16,.09-.23,.14-.06,.06-.11,.13-.15,.21-.04,.08-.06,.17-.06,.27v1.02c0,.1,.02,.19,.05,.28,.04,.09,.09,.16,.15,.23,.07,.06,.14,.11,.23,.15,.09,.04,.19,.06,.3,.06h.08c.12-.03,.23-.06,.31-.11,.09-.05,.16-.12,.21-.2,.05-.07,.09-.13,.15-.18,.05-.05,.14-.07,.25-.07Zm-3.81,0c.11,0,.21,.04,.3,.12,.08,.08,.12,.18,.12,.31,0,.04,0,.08-.02,.12-.02,.04-.04,.08-.05,.12-.12,.22-.3,.39-.52,.52-.23,.13-.48,.19-.77,.19h-.05c-.21,0-.41-.04-.6-.11-.19-.07-.35-.18-.49-.31-.14-.13-.25-.29-.34-.47-.09-.18-.13-.38-.13-.59v-1.04c0-.21,.04-.41,.12-.6,.08-.19,.19-.35,.32-.49,.14-.14,.3-.25,.49-.33,.19-.08,.39-.12,.62-.12,.12,0,.23,0,.33,.03,.17,.03,.34,.09,.48,.17,.23,.13,.41,.31,.54,.54,.02,.03,.03,.07,.05,.11,.01,.04,.02,.08,.02,.12,0,.12-.04,.22-.12,.31-.09,.09-.19,.13-.31,.13-.09,0-.17-.02-.23-.08-.06-.05-.11-.11-.16-.18-.05-.09-.12-.16-.21-.21-.07-.04-.16-.08-.28-.11-.03,0-.07,0-.12,0-.1,0-.19,.02-.28,.06-.09,.03-.16,.09-.22,.14-.06,.06-.11,.13-.15,.21-.04,.08-.06,.17-.06,.27v1.02c0,.1,.01,.19,.05,.28,.04,.09,.09,.16,.16,.23,.06,.06,.14,.11,.23,.15,.09,.04,.19,.06,.3,.06h.08c.13-.03,.23-.06,.3-.11,.09-.05,.16-.12,.21-.2,.05-.07,.1-.13,.15-.18,.05-.05,.13-.07,.25-.07Zm-4.25-1.14c0-.1-.02-.19-.05-.28-.04-.09-.09-.16-.15-.23-.07-.06-.15-.11-.23-.15-.09-.04-.18-.06-.29-.06-.09,0-.18,.02-.27,.06-.08,.03-.16,.08-.22,.14-.06,.06-.11,.13-.15,.21-.04,.08-.06,.17-.06,.27v.57h1.43v-.54Zm-.71-1.54c.2,0,.4,.04,.59,.11,.19,.07,.35,.18,.49,.31,.14,.14,.25,.29,.34,.48,.08,.18,.12,.38,.12,.59v2.15c0,.11-.04,.21-.12,.29-.08,.08-.18,.12-.29,.12-.12,0-.21-.04-.3-.11-.09-.08-.12-.17-.12-.29v-.75h-1.43v.73c0,.11-.04,.21-.12,.29-.09,.09-.18,.12-.3,.12s-.21-.04-.29-.11c-.09-.08-.13-.17-.13-.28v-2.12c0-.21,.05-.41,.12-.6,.08-.19,.19-.35,.33-.49,.14-.14,.3-.25,.49-.33,.19-.08,.39-.12,.61-.12Zm-4.71,1.54c0-.09-.02-.18-.06-.27-.03-.09-.09-.16-.15-.22-.06-.07-.14-.12-.22-.15-.09-.03-.17-.05-.26-.05h-.69v1.4h.69c.09,0,.18-.02,.26-.05,.09-.04,.16-.09,.22-.15,.07-.06,.12-.14,.15-.22,.04-.08,.06-.17,.06-.27Zm-.87,1.55h-.52v.56c0,.12-.04,.22-.12,.3-.08,.08-.18,.12-.3,.12s-.22-.04-.3-.12c-.08-.08-.12-.18-.12-.3v-3.24c0-.12,.04-.22,.12-.3,.08-.08,.18-.12,.3-.12h1.12c.21,0,.41,.04,.6,.12,.19,.08,.36,.19,.5,.33,.14,.14,.25,.31,.33,.5,.08,.19,.12,.39,.12,.6,0,.28-.07,.54-.2,.77-.13,.23-.31,.42-.53,.55l.49,.47c.08,.09,.12,.19,.12,.3s-.04,.22-.13,.31c-.07,.09-.17,.12-.29,.12s-.22-.04-.3-.12l-.87-.86Zm-3.09-1.55c0-.1-.02-.19-.05-.28-.04-.09-.08-.16-.15-.23-.07-.06-.14-.11-.23-.15-.09-.04-.18-.06-.29-.06s-.19,.02-.28,.06c-.08,.03-.16,.08-.22,.14-.06,.06-.11,.13-.15,.21-.04,.08-.06,.17-.06,.27v1.02c0,.1,.01,.19,.05,.28,.04,.09,.09,.16,.16,.23,.07,.06,.14,.11,.23,.15,.09,.04,.18,.06,.29,.06,.1,0,.18-.02,.27-.05,.09-.04,.16-.09,.22-.15,.07-.06,.12-.13,.16-.22,.03-.08,.05-.17,.05-.27v-1.02Zm-.71,2.54c-.21,0-.41-.04-.6-.11-.19-.07-.35-.18-.49-.31-.14-.13-.25-.29-.34-.47-.09-.18-.13-.38-.13-.59v-1.04c0-.21,.04-.41,.12-.6,.08-.19,.19-.35,.33-.49,.14-.14,.3-.25,.49-.33,.19-.08,.4-.12,.62-.12,.2,0,.4,.04,.59,.11,.19,.07,.35,.18,.49,.31,.14,.14,.25,.29,.34,.48,.09,.18,.12,.38,.12,.59v1.04c0,.21-.04,.41-.12,.6-.08,.19-.19,.35-.32,.49-.14,.14-.3,.25-.49,.33-.19,.08-.39,.12-.61,.12Zm-4.09-3.22v.95h.96c.12,0,.22,.04,.31,.12,.08,.09,.12,.19,.12,.31s-.04,.22-.12,.3c-.08,.08-.18,.12-.31,.12h-.96v.97c0,.12-.04,.23-.12,.31-.08,.08-.19,.12-.31,.12s-.23-.04-.31-.12c-.08-.08-.12-.18-.12-.31v-3.21c0-.11,.04-.21,.12-.3,.09-.09,.19-.13,.31-.13h1.82c.12,0,.22,.04,.3,.12,.08,.09,.12,.19,.12,.31s-.04,.22-.12,.3c-.08,.08-.18,.12-.3,.12h-1.39Z" fill="#b1b3b4" fill-rule="evenodd"/>
</svg>